<?xml version="1.0" encoding="UTF-8" standalone="no"?>
<svg width="16px" height="19px" viewBox="0 0 16 19" version="1.1" xmlns="http://www.w3.org/2000/svg" xmlns:xlink="http://www.w3.org/1999/xlink" xmlns:sketch="http://www.bohemiancoding.com/sketch/ns">
    <title>happy</title>
    <description>Created with Sketch (http://www.bohemiancoding.com/sketch)</description>
    <defs></defs>
    <g id="Page-1" stroke="none" stroke-width="1" fill="none" fill-rule="evenodd" sketch:type="MSPage">
        <g id="happy" sketch:type="MSArtboardGroup" fill="#FA5D4D">
            <path d="M15.228312,7.62065353 C15.228312,3.4115644 11.8184132,0 7.614156,0 C3.40865563,0 0,3.4115644 0,7.62065353 C0,10.8754502 2.0424585,13.6475018 4.91159679,14.738655 C4.23782168,16.0288783 3.2308884,18.0394866 2.97853351,19 L11.991208,19 C11.991208,19 11.4156399,16.4792744 10.1327323,14.8058411 C13.0975914,13.7644555 15.228312,10.9451247 15.228312,7.62065353 C15.228312,7.62065353 15.228312,10.9451247 15.228312,7.62065353 L15.228312,7.62065353 L15.228312,7.62065353 Z M9.34831888,4.49774082 C9.34831888,4.15434484 9.62677944,3.87564665 9.97112576,3.87564665 C10.314229,3.87564665 10.5926895,4.15434484 10.5926895,4.49774082 L10.5926895,6.22094165 C10.5926895,6.56558182 10.314229,6.84303582 9.97112576,6.84303582 C9.62677944,6.84303582 9.34831888,6.56558182 9.34831888,6.22094165 L9.34831888,4.49774082 L9.34831888,4.49774082 L9.34831888,4.49774082 L9.34831888,4.49774082 Z M4.42802019,4.49774082 C4.42802019,4.15434484 4.70648075,3.87564665 5.04958395,3.87564665 C5.39393027,3.87564665 5.67239083,4.15434484 5.67239083,4.49774082 L5.67239083,6.22094165 C5.67239083,6.56558182 5.39393027,6.84303582 5.04958395,6.84303582 C4.70648075,6.84303582 4.42802019,6.56558182 4.42802019,6.22094165 L4.42802019,4.49774082 L4.42802019,4.49774082 L4.42802019,4.49774082 L4.42802019,4.49774082 Z M7.50973329,11.8197891 C4.90538116,11.8197891 4.0351919,10.133914 3.93947108,9.24307511 C3.90342038,8.90092332 4.14955963,8.59485299 4.49017657,8.55752734 C4.82084848,8.5189575 5.13535974,8.7640626 5.1738967,9.10372602 C5.19627299,9.26049375 5.43992598,10.5756008 7.50973329,10.5756008 C9.58699936,10.5756008 9.82443671,9.25302862 9.84556988,9.10123764 C9.89032247,8.76530679 10.2035906,8.51771331 10.5367488,8.56250409 C10.8736363,8.60356231 11.1160462,8.90465588 11.0799955,9.24307511 C10.9842747,10.133914 10.1140854,11.8197891 7.50973329,11.8197891 L7.50973329,11.8197891 Z" id="Fill-1-copy" sketch:type="MSShapeGroup"></path>
        </g>
    </g>
</svg>